<?xml version="1.0" encoding="UTF-8"?>
<!--Generator: Apple Native CoreSVG 149-->
<!DOCTYPE svg
PUBLIC "-//W3C//DTD SVG 1.1//EN"
       "http://www.w3.org/Graphics/SVG/1.1/DTD/svg11.dtd">
<svg version="1.1" xmlns="http://www.w3.org/2000/svg" xmlns:xlink="http://www.w3.org/1999/xlink" width="3300" height="2200">
 <!--glyph: "uni10066D.medium", point size: 100.000000, font version: "Version 16.0d18e1", template writer version: "8"-->
 <g id="Notes">
  <rect height="2200" id="artboard" style="fill:white;opacity:1" width="3300" x="0" y="0"/>
  <line id="" style="fill:none;stroke:black;opacity:1;stroke-width:0.5;" x1="263" x2="3036" y1="292" y2="292"/>
  <text style="stroke:none;fill:black;font-family:-apple-system,&quot;SF Pro Display&quot;,&quot;SF Pro Text&quot;,Helvetica,sans-serif;font-weight:bold;" transform="matrix(1 0 0 1 263 322)">Weight/Scale Variations</text>
  <text style="stroke:none;fill:black;font-family:-apple-system,&quot;SF Pro Display&quot;,&quot;SF Pro Text&quot;,Helvetica,sans-serif;text-anchor:middle;" transform="matrix(1 0 0 1 559.711 322)">Ultralight</text>
  <text style="stroke:none;fill:black;font-family:-apple-system,&quot;SF Pro Display&quot;,&quot;SF Pro Text&quot;,Helvetica,sans-serif;text-anchor:middle;" transform="matrix(1 0 0 1 856.422 322)">Thin</text>
  <text style="stroke:none;fill:black;font-family:-apple-system,&quot;SF Pro Display&quot;,&quot;SF Pro Text&quot;,Helvetica,sans-serif;text-anchor:middle;" transform="matrix(1 0 0 1 1153.13 322)">Light</text>
  <text style="stroke:none;fill:black;font-family:-apple-system,&quot;SF Pro Display&quot;,&quot;SF Pro Text&quot;,Helvetica,sans-serif;text-anchor:middle;" transform="matrix(1 0 0 1 1449.84 322)">Regular</text>
  <text style="stroke:none;fill:black;font-family:-apple-system,&quot;SF Pro Display&quot;,&quot;SF Pro Text&quot;,Helvetica,sans-serif;text-anchor:middle;" transform="matrix(1 0 0 1 1746.56 322)">Medium</text>
  <text style="stroke:none;fill:black;font-family:-apple-system,&quot;SF Pro Display&quot;,&quot;SF Pro Text&quot;,Helvetica,sans-serif;text-anchor:middle;" transform="matrix(1 0 0 1 2043.27 322)">Semibold</text>
  <text style="stroke:none;fill:black;font-family:-apple-system,&quot;SF Pro Display&quot;,&quot;SF Pro Text&quot;,Helvetica,sans-serif;text-anchor:middle;" transform="matrix(1 0 0 1 2339.98 322)">Bold</text>
  <text style="stroke:none;fill:black;font-family:-apple-system,&quot;SF Pro Display&quot;,&quot;SF Pro Text&quot;,Helvetica,sans-serif;text-anchor:middle;" transform="matrix(1 0 0 1 2636.69 322)">Heavy</text>
  <text style="stroke:none;fill:black;font-family:-apple-system,&quot;SF Pro Display&quot;,&quot;SF Pro Text&quot;,Helvetica,sans-serif;text-anchor:middle;" transform="matrix(1 0 0 1 2933.4 322)">Black</text>
  <line id="" style="fill:none;stroke:black;opacity:1;stroke-width:0.5;" x1="263" x2="3036" y1="1903" y2="1903"/>
  <g id="" transform="matrix(1 0 0 1 263 1933)">
   <path d="M9.24805 0.830078C13.5547 0.830078 17.1387-2.74414 17.1387-7.05078C17.1387-11.3574 13.5449-14.9316 9.23828-14.9316C4.94141-14.9316 1.36719-11.3574 1.36719-7.05078C1.36719-2.74414 4.95117 0.830078 9.24805 0.830078ZM9.24805-0.654297C5.70312-0.654297 2.87109-3.49609 2.87109-7.05078C2.87109-10.6055 5.69336-13.4473 9.23828-13.4473C12.793-13.4473 15.6348-10.6055 15.6445-7.05078C15.6543-3.49609 12.8027-0.654297 9.24805-0.654297ZM6.39648-6.31836L8.50586-6.31836L8.50586-4.19922C8.50586-3.75977 8.79883-3.45703 9.22852-3.45703C9.67773-3.45703 9.9707-3.75977 9.9707-4.19922L9.9707-6.31836L12.0996-6.31836C12.5391-6.31836 12.8418-6.61133 12.8418-7.04102C12.8418-7.48047 12.5391-7.7832 12.0996-7.7832L9.9707-7.7832L9.9707-9.89258C9.9707-10.3418 9.67773-10.6445 9.22852-10.6445C8.79883-10.6445 8.50586-10.3418 8.50586-9.89258L8.50586-7.7832L6.39648-7.7832C5.94727-7.7832 5.64453-7.48047 5.64453-7.04102C5.64453-6.61133 5.94727-6.31836 6.39648-6.31836Z"/>
  </g>
  <g id="" transform="matrix(1 0 0 1 281.506 1933)">
   <path d="M11.709 2.91016C17.1582 2.91016 21.6699-1.61133 21.6699-7.05078C21.6699-12.5 17.1484-17.0117 11.6992-17.0117C6.25977-17.0117 1.74805-12.5 1.74805-7.05078C1.74805-1.61133 6.26953 2.91016 11.709 2.91016ZM11.709 1.25C7.09961 1.25 3.41797-2.44141 3.41797-7.05078C3.41797-11.6602 7.08984-15.3516 11.6992-15.3516C16.3086-15.3516 20-11.6602 20.0098-7.05078C20.0195-2.44141 16.3184 1.25 11.709 1.25ZM7.98828-6.23047L10.8789-6.23047L10.8789-3.32031C10.8789-2.83203 11.2109-2.5 11.6895-2.5C12.1777-2.5 12.5195-2.83203 12.5195-3.32031L12.5195-6.23047L15.4297-6.23047C15.918-6.23047 16.25-6.5625 16.25-7.04102C16.25-7.5293 15.918-7.87109 15.4297-7.87109L12.5195-7.87109L12.5195-10.7617C12.5195-11.2695 12.1777-11.6016 11.6895-11.6016C11.2109-11.6016 10.8789-11.2598 10.8789-10.7617L10.8789-7.87109L7.98828-7.87109C7.48047-7.87109 7.14844-7.5293 7.14844-7.04102C7.14844-6.5625 7.49023-6.23047 7.98828-6.23047Z"/>
  </g>
  <g id="" transform="matrix(1 0 0 1 304.924 1933)">
   <path d="M14.9707 5.66406C21.9336 5.66406 27.6953-0.0976562 27.6953-7.05078C27.6953-14.0137 21.9238-19.7754 14.9609-19.7754C8.00781-19.7754 2.25586-14.0137 2.25586-7.05078C2.25586-0.0976562 8.01758 5.66406 14.9707 5.66406ZM14.9707 3.84766C8.93555 3.84766 4.08203-1.01562 4.08203-7.05078C4.08203-13.0957 8.92578-17.9492 14.9609-17.9492C21.0059-17.9492 25.8594-13.0957 25.8691-7.05078C25.8789-1.01562 21.0156 3.84766 14.9707 3.84766ZM10.0586-6.14258L14.0625-6.14258L14.0625-2.12891C14.0625-1.5918 14.4336-1.2207 14.9512-1.2207C15.4883-1.2207 15.8594-1.5918 15.8594-2.12891L15.8594-6.14258L19.8828-6.14258C20.4102-6.14258 20.791-6.51367 20.791-7.03125C20.791-7.56836 20.4199-7.94922 19.8828-7.94922L15.8594-7.94922L15.8594-11.9531C15.8594-12.5098 15.4883-12.8809 14.9512-12.8809C14.4336-12.8809 14.0625-12.5 14.0625-11.9531L14.0625-7.94922L10.0586-7.94922C9.50195-7.94922 9.13086-7.56836 9.13086-7.03125C9.13086-6.51367 9.51172-6.14258 10.0586-6.14258Z"/>
  </g>
  <text style="stroke:none;fill:black;font-family:-apple-system,&quot;SF Pro Display&quot;,&quot;SF Pro Text&quot;,Helvetica,sans-serif;font-weight:bold;" transform="matrix(1 0 0 1 263 1953)">Design Variations</text>
  <text style="stroke:none;fill:black;font-family:-apple-system,&quot;SF Pro Display&quot;,&quot;SF Pro Text&quot;,Helvetica,sans-serif;" transform="matrix(1 0 0 1 263 1971)">Symbols are supported in up to nine weights and three scales.</text>
  <text style="stroke:none;fill:black;font-family:-apple-system,&quot;SF Pro Display&quot;,&quot;SF Pro Text&quot;,Helvetica,sans-serif;" transform="matrix(1 0 0 1 263 1989)">For optimal layout with text and other symbols, vertically align</text>
  <text style="stroke:none;fill:black;font-family:-apple-system,&quot;SF Pro Display&quot;,&quot;SF Pro Text&quot;,Helvetica,sans-serif;" transform="matrix(1 0 0 1 263 2007)">symbols with the adjacent text.</text>
  <line id="" style="fill:none;stroke:#00AEEF;stroke-width:0.5;opacity:1.0;" x1="776" x2="776" y1="1919" y2="1933"/>
  <g id="" transform="matrix(1 0 0 1 776 1933)">
   <path d="M3.31055 0.126953C3.82812 0.126953 4.08203-0.0683594 4.26758-0.605469L5.52734-4.0625L11.2891-4.0625L12.5488-0.605469C12.7344-0.0683594 12.9883 0.126953 13.4961 0.126953C14.0137 0.126953 14.3457-0.185547 14.3457-0.673828C14.3457-0.839844 14.3164-0.986328 14.2383-1.20117L9.6582-13.3887C9.43359-13.9941 9.0332-14.2871 8.4082-14.2871C7.80273-14.2871 7.39258-13.9941 7.17773-13.3984L2.59766-1.19141C2.51953-0.976562 2.49023-0.830078 2.49023-0.664062C2.49023-0.175781 2.80273 0.126953 3.31055 0.126953ZM6.00586-5.53711L8.37891-12.1094L8.42773-12.1094L10.8008-5.53711Z"/>
  </g>
  <line id="" style="fill:none;stroke:#00AEEF;stroke-width:0.5;opacity:1.0;" x1="792.836" x2="792.836" y1="1919" y2="1933"/>
  <text style="stroke:none;fill:black;font-family:-apple-system,&quot;SF Pro Display&quot;,&quot;SF Pro Text&quot;,Helvetica,sans-serif;font-weight:bold;" transform="matrix(1 0 0 1 776 1953)">Margins</text>
  <text style="stroke:none;fill:black;font-family:-apple-system,&quot;SF Pro Display&quot;,&quot;SF Pro Text&quot;,Helvetica,sans-serif;" transform="matrix(1 0 0 1 776 1971)">Leading and trailing margins on the left and right side of each symbol</text>
  <text style="stroke:none;fill:black;font-family:-apple-system,&quot;SF Pro Display&quot;,&quot;SF Pro Text&quot;,Helvetica,sans-serif;" transform="matrix(1 0 0 1 776 1989)">can be adjusted by modifying the x-location of the margin guidelines.</text>
  <text style="stroke:none;fill:black;font-family:-apple-system,&quot;SF Pro Display&quot;,&quot;SF Pro Text&quot;,Helvetica,sans-serif;" transform="matrix(1 0 0 1 776 2007)">Modifications are automatically applied proportionally to all</text>
  <text style="stroke:none;fill:black;font-family:-apple-system,&quot;SF Pro Display&quot;,&quot;SF Pro Text&quot;,Helvetica,sans-serif;" transform="matrix(1 0 0 1 776 2025)">scales and weights.</text>
  <g id="" transform="matrix(1 0 0 1 1289 1933)">
   <path d="M2.8418 1.86523L4.54102 3.57422C5.40039 4.44336 6.38672 4.38477 7.31445 3.35938L17.4902-7.85156C17.7539-7.76367 18.0273-7.7832 18.3398-7.8418L19.4043-8.03711L20.0684-7.36328L20.0293-6.80664C19.9902-6.30859 20.1172-5.92773 20.6055-5.44922L21.3672-4.70703C21.8457-4.22852 22.4609-4.19922 22.9297-4.66797L25.8398-7.58789C26.3086-8.05664 26.2891-8.65234 25.8105-9.13086L25.0391-9.89258C24.5605-10.3711 24.1895-10.5273 23.7109-10.4883L23.1348-10.4395L22.4902-11.0742L22.7344-12.1973C22.8613-12.7637 22.7051-13.2031 22.1191-13.7891L19.9219-15.9766C16.582-19.2969 12.1484-19.2188 9.25781-16.3281C8.83789-15.918 8.80859-15.3418 9.04297-14.9512C9.27734-14.5898 9.73633-14.3555 10.3809-14.5215C11.8457-14.8633 13.3691-14.9219 14.7949-13.9844L14.209-12.5293C14.0137-12.0508 13.9844-11.6504 14.1113-11.2891L3.04688-0.898438C2.06055 0.0195312 1.98242 0.996094 2.8418 1.86523ZM10.752-15.957C13.1836-17.7344 16.4746-17.4316 18.7012-15.2051L21.1328-12.793C21.3672-12.5586 21.4062-12.373 21.3379-12.0312L21.0156-10.5469L22.5195-9.0625L23.5059-9.12109C23.7598-9.13086 23.8379-9.11133 24.0332-8.91602L24.6094-8.33984L22.168-5.89844L21.5918-6.47461C21.3965-6.66992 21.3672-6.74805 21.377-7.01172L21.4453-7.98828L19.9512-9.47266L18.4277-9.21875C18.1055-9.15039 17.959-9.17969 17.7148-9.41406L15.7129-11.416C15.459-11.6504 15.4297-11.8164 15.5859-12.1875L16.4648-14.2773C14.9023-15.7324 12.8711-16.3574 10.8398-15.7617C10.6836-15.7227 10.625-15.8496 10.752-15.957ZM5.27344 2.30469L4.10156 1.14258C3.63281 0.683594 3.74023 0.341797 4.14062-0.0195312L14.9512-10.1953L16.416-8.71094L6.42578 2.27539C6.07422 2.67578 5.74219 2.77344 5.27344 2.30469Z"/>
  </g>
  <text style="stroke:none;fill:black;font-family:-apple-system,&quot;SF Pro Display&quot;,&quot;SF Pro Text&quot;,Helvetica,sans-serif;font-weight:bold;" transform="matrix(1 0 0 1 1289 1953)">Exporting</text>
  <text style="stroke:none;fill:black;font-family:-apple-system,&quot;SF Pro Display&quot;,&quot;SF Pro Text&quot;,Helvetica,sans-serif;" transform="matrix(1 0 0 1 1289 1971)">Symbols should be outlined when exporting to ensure the</text>
  <text style="stroke:none;fill:black;font-family:-apple-system,&quot;SF Pro Display&quot;,&quot;SF Pro Text&quot;,Helvetica,sans-serif;" transform="matrix(1 0 0 1 1289 1989)">design is preserved when submitting to Xcode.</text>
  <text id="template-version" style="stroke:none;fill:black;font-family:-apple-system,&quot;SF Pro Display&quot;,&quot;SF Pro Text&quot;,Helvetica,sans-serif;text-anchor:end;" transform="matrix(1 0 0 1 3036 1933)">Template v.2.0</text>
  <text style="stroke:none;fill:black;font-family:-apple-system,&quot;SF Pro Display&quot;,&quot;SF Pro Text&quot;,Helvetica,sans-serif;text-anchor:end;" transform="matrix(1 0 0 1 3036 1951)">Requires Xcode 12 or greater</text>
  <text style="stroke:none;fill:black;font-family:-apple-system,&quot;SF Pro Display&quot;,&quot;SF Pro Text&quot;,Helvetica,sans-serif;text-anchor:end;" transform="matrix(1 0 0 1 3036 1969)">Generated from flame.fill</text>
  <text style="stroke:none;fill:black;font-family:-apple-system,&quot;SF Pro Display&quot;,&quot;SF Pro Text&quot;,Helvetica,sans-serif;text-anchor:end;" transform="matrix(1 0 0 1 3036 1987)">Typeset at 100 points</text>
  <text style="stroke:none;fill:black;font-family:-apple-system,&quot;SF Pro Display&quot;,&quot;SF Pro Text&quot;,Helvetica,sans-serif;" transform="matrix(1 0 0 1 263 726)">Small</text>
  <text style="stroke:none;fill:black;font-family:-apple-system,&quot;SF Pro Display&quot;,&quot;SF Pro Text&quot;,Helvetica,sans-serif;" transform="matrix(1 0 0 1 263 1156)">Medium</text>
  <text style="stroke:none;fill:black;font-family:-apple-system,&quot;SF Pro Display&quot;,&quot;SF Pro Text&quot;,Helvetica,sans-serif;" transform="matrix(1 0 0 1 263 1586)">Large</text>
 </g>
 <g id="Guides">
  <g id="H-reference" style="fill:#27AAE1;stroke:none;" transform="matrix(1 0 0 1 339 696)">
   <path d="M0.976562 0L3.66211 0L12.9883-24.4629L45.752-24.4629L55.127 0L57.7637 0L30.6152-70.459L28.125-70.459ZM29.3457-67.1387L29.4434-67.1387L44.873-26.709L13.8672-26.709Z"/>
  </g>
  <line id="Baseline-S" style="fill:none;stroke:#27AAE1;opacity:1;stroke-width:0.5;" x1="263" x2="3036" y1="696" y2="696"/>
  <line id="Capline-S" style="fill:none;stroke:#27AAE1;opacity:1;stroke-width:0.5;" x1="263" x2="3036" y1="625.541" y2="625.541"/>
  <g id="H-reference" style="fill:#27AAE1;stroke:none;" transform="matrix(1 0 0 1 339 1126)">
   <path d="M0.976562 0L3.66211 0L12.9883-24.4629L45.752-24.4629L55.127 0L57.7637 0L30.6152-70.459L28.125-70.459ZM29.3457-67.1387L29.4434-67.1387L44.873-26.709L13.8672-26.709Z"/>
  </g>
  <line id="Baseline-M" style="fill:none;stroke:#27AAE1;opacity:1;stroke-width:0.5;" x1="263" x2="3036" y1="1126" y2="1126"/>
  <line id="Capline-M" style="fill:none;stroke:#27AAE1;opacity:1;stroke-width:0.5;" x1="263" x2="3036" y1="1055.54" y2="1055.54"/>
  <g id="H-reference" style="fill:#27AAE1;stroke:none;" transform="matrix(1 0 0 1 339 1556)">
   <path d="M0.976562 0L3.66211 0L12.9883-24.4629L45.752-24.4629L55.127 0L57.7637 0L30.6152-70.459L28.125-70.459ZM29.3457-67.1387L29.4434-67.1387L44.873-26.709L13.8672-26.709Z"/>
  </g>
  <line id="Baseline-L" style="fill:none;stroke:#27AAE1;opacity:1;stroke-width:0.5;" x1="263" x2="3036" y1="1556" y2="1556"/>
  <line id="Capline-L" style="fill:none;stroke:#27AAE1;opacity:1;stroke-width:0.5;" x1="263" x2="3036" y1="1485.54" y2="1485.54"/>
  <line id="left-margin" style="fill:none;stroke:#00AEEF;stroke-width:0.5;opacity:1.0;" x1="1400.43" x2="1400.43" y1="1030.79" y2="1150.12"/>
  <line id="right-margin" style="fill:none;stroke:#00AEEF;stroke-width:0.5;opacity:1.0;" x1="1499.26" x2="1499.26" y1="1030.79" y2="1150.12"/>
 </g>
 <g id="Symbols">
  <g id="Black-L" transform="matrix(1 0 0 1 2864.99 1556)">
   <path d="M65.2344 31.2012C101.416 31.2012 125.537 7.03125 125.537-29.248C125.537-88.2812 74.3652-113.184 39.9902-113.184C31.5918-113.184 25.7812-109.57 25.7812-102.979C25.7812-100.439 26.9531-97.8027 28.7109-95.6543C37.0605-85.4492 42.9688-77.1484 43.5059-66.6504C39.0137-75.293 34.2773-77.8809 29.4922-77.8809C25.1465-77.8809 22.2168-75.0977 22.2168-70.2148C22.2168-67.2852 22.7051-64.9902 22.7051-60.8398C22.7051-45.5566 11.2793-40.6738 11.2793-15.7227C11.2793 12.4023 32.8613 31.2012 65.2344 31.2012ZM67.041 6.10352C55.3711 6.10352 47.6562-0.732422 47.6562-11.0352C47.6562-21.5332 54.8828-24.2188 55.8105-33.3496C55.8594-34.7168 57.3242-35.5469 58.6914-34.3262C61.084-31.8848 62.7441-28.7598 63.9648-24.5117C66.8945-30.6641 66.9922-38.1348 65.6738-46.2402C65.2832-47.998 66.7969-48.8281 68.2129-48.2422C81.2988-42.7734 89.0137-29.9805 89.0137-16.3086C89.0137-3.32031 80.6641 6.10352 67.041 6.10352Z"/>
  </g>
  <g id="Heavy-L" transform="matrix(1 0 0 1 2569.53 1556)">
   <path d="M64.0625 30.127C99.4629 30.127 123.047 6.39648 123.047-29.248C123.047-87.5488 72.7539-112.061 38.5742-112.061C30.8594-112.061 25.6348-108.887 25.6348-102.979C25.6348-100.732 26.6602-98.3398 28.3203-96.3379C36.7676-86.084 43.2129-76.9531 43.2617-65.5762C43.2617-65.332 43.2617-65.0879 43.2617-64.8438C38.916-73.5352 33.5938-76.7578 28.5156-76.7578C24.6582-76.7578 22.1191-74.2676 22.1191-69.9707C22.1191-67.334 22.5586-64.6484 22.5586-60.8398C22.5586-45.6543 11.2793-40.0879 11.2793-15.7227C11.2793 11.7676 32.373 30.127 64.0625 30.127ZM65.7715 6.73828C54.1016 6.73828 46.4355-0.0976562 46.4355-10.4004C46.4355-20.9961 53.7598-23.9746 54.6875-32.5684C54.7852-33.7402 56.0059-34.4238 57.1289-33.3984C59.6191-30.957 61.377-27.832 62.6465-23.7305C65.6738-29.4434 66.1133-37.3535 64.7949-45.9961C64.502-47.4609 65.7227-48.1934 66.9922-47.6562C80.127-41.9922 87.6465-29.0527 87.6465-15.7715C87.6465-2.97852 79.6387 6.73828 65.7715 6.73828Z"/>
  </g>
  <g id="Bold-L" transform="matrix(1 0 0 1 2274.18 1556)">
   <path d="M62.793 28.9062C97.2656 28.9062 120.312 5.71289 120.312-29.248C120.312-86.6699 70.9473-110.84 36.9629-110.84C30.0293-110.84 25.4883-108.105 25.4883-102.979C25.4883-101.025 26.3672-98.9258 27.8809-97.1191C36.0352-87.3047 42.8711-77.5879 42.9199-65.918C42.9199-65.0391 42.8711-64.1602 42.6758-63.2324C38.6719-71.6309 32.7148-75.5371 27.4414-75.5371C24.1699-75.5371 21.9238-73.3398 21.9238-69.6777C21.9238-67.3828 22.4121-64.3066 22.4121-60.8398C22.4121-45.8008 11.2793-39.4531 11.2793-15.7227C11.2793 11.084 31.7871 28.9062 62.793 28.9062ZM64.3066 7.4707C52.7344 7.4707 45.1172 0.585938 45.1172-9.7168C45.1172-20.3613 52.4902-23.6816 53.4668-31.6895C53.5645-32.666 54.4922-33.1543 55.3711-32.373C58.0078-29.8828 59.8145-26.7578 61.1816-22.9004C64.3066-28.125 65.1367-36.5234 63.8672-45.6543C63.623-46.8262 64.5508-47.4121 65.5762-47.0215C78.8086-41.0645 86.1816-28.0273 86.1816-15.1855C86.1816-2.58789 78.4668 7.4707 64.3066 7.4707Z"/>
  </g>
  <g id="Semibold-L" transform="matrix(1 0 0 1 1978.45 1556)">
   <path d="M61.8652 28.0273C95.752 28.0273 118.359 5.22461 118.359-29.248C118.359-86.084 69.7266-110.01 35.8887-110.01C29.4922-110.01 25.3906-107.568 25.3906-102.979C25.3906-101.221 26.1719-99.3652 27.5879-97.6562C35.5469-88.1348 42.627-77.9785 42.6758-66.2109C42.6758-64.8926 42.5781-63.623 42.2363-62.3047C38.4277-70.3613 32.1289-74.707 26.709-74.707C23.7793-74.707 21.8262-72.7051 21.8262-69.4824C21.8262-67.4316 22.3145-64.0625 22.3145-60.8398C22.3145-45.8496 11.2793-38.9648 11.2793-15.7227C11.2793 10.5957 31.3965 28.0273 61.8652 28.0273ZM63.3301 7.95898C51.7578 7.95898 44.1406 1.07422 44.1406-9.22852C44.1406-19.9707 51.6602-23.4375 52.6367-31.1035C52.7344-31.9336 53.4668-32.3242 54.1992-31.6406C56.8848-29.1992 58.7402-26.0742 60.2051-22.3145C63.3301-27.2461 64.4531-35.9375 63.1836-45.459C63.0371-46.4355 63.7695-46.9238 64.5996-46.5332C77.9297-40.4785 85.1562-27.3438 85.1562-14.7461C85.1562-2.34375 77.6367 7.95898 63.3301 7.95898Z"/>
  </g>
  <g id="Medium-L" transform="matrix(1 0 0 1 1682.44 1556)">
   <path d="M61.2305 27.3926C94.6289 27.3926 116.943 4.83398 116.943-29.248C116.943-85.6445 68.75-109.375 35.0586-109.375C29.0527-109.375 25.293-107.178 25.293-102.979C25.293-101.367 26.0254-99.707 27.3926-98.0957C35.1562-88.7695 42.4316-78.3203 42.5293-66.4062C42.5293-64.7949 42.3828-63.2324 41.8457-61.6699C38.1836-69.4336 31.6406-74.0723 26.1719-74.0723C23.5352-74.0723 21.7773-72.2168 21.7773-69.3359C21.7773-67.4805 22.2168-63.8672 22.2168-60.8398C22.2168-45.9473 11.2793-38.623 11.2793-15.7227C11.2793 10.2051 31.1035 27.3926 61.2305 27.3926ZM62.5488 8.34961C51.0254 8.34961 43.457 1.46484 43.457-8.88672C43.457-19.6289 50.9766-23.291 52.002-30.6152C52.0996-31.3477 52.6367-31.6406 53.2715-31.1035C56.0547-28.6621 57.9102-25.4883 59.4238-21.8262C62.6465-26.5625 63.916-35.4492 62.6953-45.3125C62.5977-46.0938 63.1348-46.5332 63.8672-46.1914C77.2461-39.9902 84.375-26.7578 84.375-14.4531C84.375-2.14844 77.002 8.34961 62.5488 8.34961Z"/>
  </g>
  <g id="Regular-L" transform="matrix(1 0 0 1 1386.69 1556)">
   <path d="M60.3027 26.5625C93.1152 26.5625 115.039 4.3457 115.039-29.248C115.039-85.0586 67.5293-108.545 33.9355-108.545C28.5156-108.545 25.1953-106.641 25.1953-102.979C25.1953-101.562 25.8301-100.098 27.0996-98.6328C34.6191-89.5996 42.1875-78.7598 42.2852-66.6504C42.2852-64.6484 42.0898-62.793 41.3574-60.791C37.8906-68.2617 31.0059-73.2422 25.4395-73.2422C23.1445-73.2422 21.6309-71.582 21.6309-69.1406C21.6309-67.4805 22.1191-63.623 22.1191-60.8398C22.1191-45.9961 11.2793-38.1836 11.2793-15.7227C11.2793 9.7168 30.7129 26.5625 60.3027 26.5625ZM61.5723 8.83789C50.0977 8.83789 42.5293 1.95312 42.5293-8.39844C42.5293-19.1895 50.1465-23.0957 51.1719-30.0293C51.2695-30.6152 51.6113-30.7617 52.0996-30.4199C54.9316-27.9297 56.8359-24.8047 58.3984-21.2402C61.6699-25.6348 63.2324-34.9121 62.0605-45.1172C61.9629-45.6543 62.3535-45.9961 62.8906-45.752C76.3184-39.3555 83.3496-26.0742 83.3496-14.0625C83.3496-1.85547 76.2207 8.83789 61.5723 8.83789Z"/>
  </g>
  <g id="Light-L" transform="matrix(1 0 0 1 1090.8 1556)">
   <path d="M59.7168 25.7812C91.8945 25.7812 113.379 3.90625 113.379-29.248C113.379-84.375 66.5527-107.715 32.666-107.715C27.8809-107.715 25.1953-106.104 25.1953-102.979C25.1953-101.758 25.7324-100.537 26.9043-99.1211C34.5703-90.0391 42.1387-78.8086 42.1875-67.1875C42.1875-64.6973 41.7969-62.3535 40.7227-59.9609C37.207-67.4805 29.834-72.4121 24.6094-72.4121C22.8027-72.4121 21.6309-71.0938 21.6309-69.1895C21.6309-67.5293 22.1191-63.6719 22.1191-60.8398C22.1191-45.0195 11.2793-37.8418 11.2793-15.7227C11.2793 9.22852 30.3711 25.7812 59.7168 25.7812ZM60.6934 8.00781C49.6094 8.00781 42.2852 1.36719 42.2852-8.64258C42.2852-19.0918 49.6094-22.8516 50.6836-29.541C50.7324-30.127 51.123-30.2734 51.5137-29.9316C54.2969-27.5391 56.25-24.4141 57.8125-21.0449C60.9863-25.293 62.5-34.0332 61.1816-44.0918C61.084-44.6289 61.4258-44.9707 61.9629-44.7266C74.9023-38.4766 81.7383-25.7324 81.7383-14.1113C81.7383-2.34375 74.8535 8.00781 60.6934 8.00781Z"/>
  </g>
  <g id="Thin-L" transform="matrix(1 0 0 1 795.192 1556)">
   <path d="M58.8867 24.707C90.1855 24.707 111.182 3.32031 111.182-29.248C111.182-83.4473 65.2832-106.641 30.957-106.641C27.0996-106.641 25.1953-105.371 25.1953-102.979C25.1953-102.051 25.6348-101.123 26.709-99.8047C34.4727-90.625 42.0898-78.9062 42.0898-67.8711C42.0898-64.7461 41.3574-61.8164 39.7949-59.0332C36.2793-66.6016 28.1738-71.3379 23.5352-71.3379C22.3633-71.3379 21.6309-70.5078 21.6309-69.2871C21.6309-67.5781 22.1191-63.7207 22.1191-60.8398C22.1191-43.75 11.2793-37.3535 11.2793-15.7227C11.2793 8.64258 29.8828 24.707 58.8867 24.707ZM59.5215 6.93359C48.9258 6.93359 41.9922 0.585938 41.9922-8.98438C41.9922-18.8965 48.9258-22.5098 50-28.9062C50.0488-29.4434 50.3906-29.5898 50.7812-29.248C53.4668-27.0508 55.4688-23.9746 57.0801-20.8008C60.1074-24.8047 61.5723-32.9102 60.0098-42.7734C59.9121-43.2617 60.2539-43.6035 60.7422-43.3594C72.998-37.2559 79.541-25.2441 79.541-14.1602C79.541-2.92969 73.0469 6.93359 59.5215 6.93359Z"/>
  </g>
  <g id="Ultralight-L" transform="matrix(1 0 0 1 499.042 1556)">
   <path d="M58.4473 24.1211C89.3555 24.1211 110.059 3.02734 110.059-29.248C110.059-82.959 64.5996-106.104 30.0781-106.104C26.6602-106.104 25.1953-104.98 25.1953-102.979C25.1953-102.148 25.5859-101.416 26.5625-100.195C34.4238-90.918 42.0898-78.9551 42.041-68.2617C42.041-64.7949 41.1133-61.5234 39.3066-58.6426C35.791-66.1621 27.2949-70.8008 22.998-70.8008C22.1191-70.8008 21.6309-70.166 21.6309-69.2871C21.6309-67.627 22.1191-63.7695 22.1191-60.8398C22.1191-43.0664 11.2793-37.0605 11.2793-15.7227C11.2793 8.34961 29.6387 24.1211 58.4473 24.1211ZM58.9355 6.34766C48.584 6.34766 41.8457 0.146484 41.8457-9.13086C41.8457-18.7988 48.584-22.3145 49.6094-28.6133C49.707-29.0527 50.0488-29.248 50.4395-28.9062C53.0762-26.7578 55.0781-23.7305 56.6895-20.6543C59.6191-24.5117 61.084-32.3242 59.4238-42.0898C59.3262-42.5781 59.6191-42.8711 60.1074-42.6758C72.0215-36.6699 78.4668-25 78.4668-14.209C78.4668-3.27148 72.1191 6.34766 58.9355 6.34766Z"/>
  </g>
  <g id="Black-M" transform="matrix(1 0 0 1 2879.15 1126)">
   <path d="M51.8066 17.2852C80.5664 17.2852 99.7559-1.85547 99.7559-30.5664C99.7559-77.002 59.2773-96.6797 32.2266-96.6797C25.1465-96.6797 20.166-93.457 20.166-87.7441C20.166-85.5469 21.1914-83.2031 22.6562-81.3965C28.9551-73.6816 33.0078-68.0176 33.9355-61.3281C30.0293-68.2617 26.8555-69.3359 23.6816-69.3359C19.9219-69.3359 17.4316-66.9922 17.4316-62.6953C17.4316-60.0098 17.7734-58.7402 17.7734-55.0781C17.7734-42.5781 8.74023-40.0391 8.74023-20.1172C8.74023 2.29492 25.9766 17.2852 51.8066 17.2852ZM53.2227-4.54102C44.3359-4.54102 38.4766-9.66797 38.4766-17.4316C38.4766-25.293 43.75-26.9043 44.4336-34.5703C44.4824-35.8398 45.9473-36.7188 47.2656-35.5469C48.9258-33.6426 50.1953-31.2988 51.0742-27.8809C53.1738-33.0566 52.7344-38.0371 51.5625-43.6035C51.1719-45.3125 52.6855-46.1426 54.1016-45.5566C63.8184-41.6504 69.873-32.2266 69.873-21.2891C69.873-11.1816 63.1836-4.54102 53.2227-4.54102Z"/>
  </g>
  <g id="Heavy-M" transform="matrix(1 0 0 1 2583.59 1126)">
   <path d="M50.6836 16.3086C78.7598 16.3086 97.4609-2.44141 97.4609-30.5664C97.4609-76.3672 57.7637-95.7031 31.0059-95.7031C24.5117-95.7031 20.0195-92.8711 20.0195-87.7441C20.0195-85.791 20.8984-83.6914 22.3145-82.0312C28.9062-73.9746 33.4473-67.5293 33.7891-59.5215C30.127-66.5039 26.416-68.3105 22.8516-68.3105C19.5312-68.3105 17.2852-66.2109 17.2852-62.4023C17.2852-60.0586 17.627-58.3984 17.627-55.0781C17.627-42.9199 8.74023-39.502 8.74023-20.1172C8.74023 1.70898 25.5371 16.3086 50.6836 16.3086ZM52.0508-3.61328C43.0664-3.61328 37.207-8.83789 37.207-16.6992C37.207-24.707 42.6758-26.709 43.3594-33.8379C43.457-34.9121 44.6289-35.6445 45.7031-34.668C47.5098-32.7637 48.8281-30.3711 49.7559-27.0508C52.002-31.8848 51.9531-37.4512 50.8301-43.5547C50.5371-44.9707 51.8066-45.6543 52.9297-45.166C62.9395-41.0156 68.8477-31.2988 68.8477-20.7031C68.8477-10.6934 62.4023-3.61328 52.0508-3.61328Z"/>
  </g>
  <g id="Bold-M" transform="matrix(1 0 0 1 2288.15 1126)">
   <path d="M49.4629 15.2344C76.709 15.2344 94.9219-3.07617 94.9219-30.5664C94.9219-75.6348 56.1035-94.5801 29.6387-94.5801C23.7793-94.5801 19.8242-92.1875 19.8242-87.7441C19.8242-86.0352 20.6055-84.2285 21.875-82.7148C28.3691-74.8535 33.4473-67.6758 33.4473-58.7891C33.4473-58.4961 33.4473-58.2031 33.4473-57.9102C30.127-64.5996 25.8789-67.2363 21.9238-67.2363C19.043-67.2363 17.0898-65.332 17.0898-62.1094C17.0898-60.1074 17.4805-57.959 17.4805-55.0781C17.4805-43.3594 8.74023-38.8672 8.74023-20.1172C8.74023 1.07422 25 15.2344 49.4629 15.2344ZM50.7324-2.53906C41.6992-2.53906 35.791-7.86133 35.791-15.8691C35.791-24.0723 41.4551-26.4648 42.1875-33.0078C42.2363-33.8867 43.1152-34.4238 43.9941-33.6426C45.9473-31.7383 47.3145-29.2969 48.3398-26.1719C50.6836-30.5176 51.0742-36.7676 50.0977-43.5059C49.8535-44.6289 50.7812-45.166 51.6602-44.7754C61.9141-40.332 67.7246-30.2734 67.7246-20.0195C67.7246-10.1562 61.5234-2.53906 50.7324-2.53906Z"/>
  </g>
  <g id="Semibold-M" transform="matrix(1 0 0 1 1992.31 1126)">
   <path d="M48.584 14.4531C75.3418 14.4531 93.1641-3.51562 93.1641-30.5664C93.1641-75.1465 54.9316-93.8477 28.7109-93.8477C23.291-93.8477 19.7266-91.6992 19.7266-87.7441C19.7266-86.1816 20.4102-84.6191 21.582-83.2031C27.832-75.6836 33.1543-68.1152 33.252-58.9844C33.252-58.3008 33.2031-57.666 33.1055-56.9824C30.0293-63.3301 25.4883-66.4551 21.2891-66.4551C18.7012-66.4551 16.9922-64.6973 16.9922-61.8652C16.9922-60.1562 17.334-57.7148 17.334-55.0781C17.334-43.6523 8.74023-38.4766 8.74023-20.1172C8.74023 0.634766 24.6094 14.4531 48.584 14.4531ZM49.8047-1.85547C40.7715-1.85547 34.7656-7.22656 34.7656-15.332C34.7656-23.6328 40.625-26.2695 41.3574-32.4707C41.4551-33.2031 42.0898-33.5449 42.7734-32.959C44.8242-31.0547 46.2402-28.6133 47.3145-25.5859C49.7559-29.6387 50.4883-36.2793 49.5605-43.5059C49.3652-44.3359 50.0488-44.7754 50.7812-44.4824C61.1816-39.8438 66.8945-29.5898 66.8945-19.5801C66.8945-9.76562 60.8887-1.85547 49.8047-1.85547Z"/>
  </g>
  <g id="Medium-M" transform="matrix(1 0 0 1 1696.26 1126)">
   <path d="M47.9492 13.8672C74.2676 13.8672 91.8457-3.85742 91.8457-30.5664C91.8457-74.7559 54.0527-93.2617 27.9785-93.2617C22.9004-93.2617 19.6289-91.3574 19.6289-87.7441C19.6289-86.3281 20.2637-84.9121 21.3867-83.5938C27.4414-76.3184 32.959-68.457 33.0566-59.082C33.0566-58.1543 33.0078-57.2754 32.8125-56.3965C29.9316-62.4512 25.1465-65.8691 20.8008-65.8691C18.457-65.8691 16.8945-64.2578 16.8945-61.7188C16.8945-60.1562 17.2852-57.5195 17.2852-55.0781C17.2852-43.8477 8.74023-38.1348 8.74023-20.1172C8.74023 0.292969 24.3652 13.8672 47.9492 13.8672ZM49.1211-1.31836C40.0391-1.31836 34.0332-6.73828 34.0332-14.8926C34.0332-23.3398 39.9902-26.123 40.7715-32.0312C40.8203-32.666 41.3574-32.9102 41.8457-32.4707C43.9941-30.5176 45.459-28.0273 46.582-25.0977C49.0723-28.9062 50-35.9375 49.1211-43.457C49.0234-44.1895 49.5117-44.5312 50.1465-44.2383C60.6934-39.4531 66.3086-29.0527 66.3086-19.2383C66.3086-9.47266 60.4492-1.31836 49.1211-1.31836Z"/>
  </g>
  <g id="Regular-M" transform="matrix(1 0 0 1 1400.43 1126)">
   <path d="M47.1191 13.1348C72.9004 13.1348 90.0879-4.29688 90.0879-30.5664C90.0879-74.2676 52.8809-92.4805 27.0508-92.4805C22.4609-92.4805 19.5312-90.8691 19.5312-87.7441C19.5312-86.5234 20.0684-85.2539 21.0938-84.082C26.9043-77.1484 32.7148-68.8965 32.8125-59.2773C32.8125-58.0566 32.7148-56.8848 32.373-55.6152C29.6875-61.3281 24.6582-65.1367 20.166-65.1367C18.1641-65.1367 16.7969-63.6719 16.7969-61.4746C16.7969-60.2051 17.1387-57.2266 17.1387-55.0781C17.1387-44.1406 8.74023-37.7441 8.74023-20.1172C8.74023-0.146484 24.0234 13.1348 47.1191 13.1348ZM48.2422-0.585938C39.1113-0.585938 33.0566-6.10352 33.0566-14.3066C33.0566-22.9004 39.1602-25.9766 39.9414-31.4941C40.0391-31.9336 40.332-32.0801 40.6738-31.7871C42.9199-29.7852 44.3848-27.3438 45.6055-24.5117C48.1934-28.0273 49.4141-35.4492 48.584-43.457C48.5352-43.8965 48.8281-44.1406 49.2676-43.9941C59.9609-38.9648 65.5273-28.3203 65.5273-18.7988C65.5273-9.13086 59.8633-0.585938 48.2422-0.585938Z"/>
  </g>
  <g id="Light-M" transform="matrix(1 0 0 1 1104.45 1126)">
   <path d="M46.5332 12.4023C71.7773 12.4023 88.623-4.6875 88.623-30.5664C88.623-73.6328 52.002-91.7969 25.8789-91.7969C21.875-91.7969 19.5312-90.3809 19.5312-87.7441C19.5312-86.7188 19.9707-85.6445 20.9473-84.5215C26.8066-77.5391 32.666-68.9941 32.7637-59.7656C32.7637-58.0566 32.5195-56.4453 31.8359-54.7852C29.1504-60.5957 23.6328-64.4043 19.4336-64.4043C17.8223-64.4043 16.7969-63.2324 16.7969-61.5234C16.7969-60.2539 17.1387-57.2754 17.1387-55.0781C17.1387-43.2617 8.74023-37.4023 8.74023-20.1172C8.74023-0.537109 23.6816 12.4023 46.5332 12.4023ZM47.4121-1.31836C38.6719-1.31836 32.8613-6.64062 32.8613-14.502C32.8613-22.7539 38.6719-25.7324 39.502-31.0547C39.5508-31.4941 39.8438-31.5918 40.1855-31.3477C42.3828-29.4434 43.8477-27.002 45.0684-24.3164C47.5586-27.6855 48.7793-34.668 47.8027-42.5293C47.7539-42.9688 48.0469-43.2129 48.4375-43.0664C58.6914-38.1348 64.0625-28.0273 64.0625-18.8477C64.0625-9.52148 58.5938-1.31836 47.4121-1.31836Z"/>
  </g>
  <g id="Thin-M" transform="matrix(1 0 0 1 808.742 1126)">
   <path d="M45.8008 11.4258C70.2637 11.4258 86.6211-5.22461 86.6211-30.5664C86.6211-72.8027 50.8789-90.8203 24.3652-90.8203C21.1914-90.8203 19.5312-89.7461 19.5312-87.7441C19.5312-86.9629 19.873-86.1816 20.752-85.1562C26.709-78.0273 32.6172-69.043 32.666-60.4004C32.666-58.1055 32.1777-55.957 31.0547-53.9062C28.3203-59.7168 22.2168-63.4277 18.457-63.4277C17.4316-63.4277 16.7969-62.6953 16.7969-61.5723C16.7969-60.3027 17.1387-57.3242 17.1387-55.0781C17.1387-42.0898 8.74023-36.9629 8.74023-20.1172C8.74023-1.07422 23.291 11.4258 45.8008 11.4258ZM46.3867-2.34375C38.0859-2.34375 32.6172-7.32422 32.6172-14.7949C32.6172-22.6074 38.0859-25.4395 38.8672-30.4688C38.9648-30.8594 39.209-31.0059 39.502-30.7617C41.6016-29.0039 43.1641-26.6113 44.3848-24.0723C46.7773-27.2461 47.9004-33.6914 46.7773-41.3574C46.6797-41.748 46.9727-41.9922 47.3145-41.7969C56.9824-37.0605 62.1094-27.5879 62.1094-18.8965C62.1094-10.0586 56.9824-2.34375 46.3867-2.34375Z"/>
  </g>
  <g id="Ultralight-M" transform="matrix(1 0 0 1 512.519 1126)">
   <path d="M45.4102 10.9375C69.4824 10.9375 85.6445-5.46875 85.6445-30.5664C85.6445-72.3633 50.2441-90.332 23.584-90.332C20.8008-90.332 19.5312-89.4043 19.5312-87.7441C19.5312-87.0605 19.8242-86.4746 20.6543-85.4492C26.709-78.2715 32.6172-69.0918 32.6172-60.6934C32.6172-58.1543 31.9336-55.6641 30.6152-53.5156C27.8809-59.3262 21.4355-62.9395 17.9688-62.9395C17.1875-62.9395 16.7969-62.4023 16.7969-61.6211C16.7969-60.3027 17.1387-57.3242 17.1387-55.0781C17.1387-41.5039 8.74023-36.7188 8.74023-20.1172C8.74023-1.36719 23.0469 10.9375 45.4102 10.9375ZM45.8496-2.83203C37.7441-2.83203 32.4707-7.66602 32.4707-14.9414C32.4707-22.5586 37.7441-25.293 38.5742-30.1758C38.623-30.5664 38.8672-30.6641 39.209-30.4199C41.2598-28.7598 42.8223-26.416 44.043-23.9746C46.3379-27.002 47.4609-33.1543 46.1914-40.7715C46.1426-41.1133 46.3867-41.3574 46.7773-41.2109C56.1035-36.5234 61.1328-27.3926 61.1328-18.9453C61.1328-10.3516 56.1523-2.83203 45.8496-2.83203Z"/>
  </g>
  <g id="Black-S" transform="matrix(1 0 0 1 2890.99 696)">
   <path d="M40.4785 5.85938C62.9883 5.85938 77.9785-9.13086 77.9785-31.5918C77.9785-67.9199 46.3379-83.3008 25.1465-83.3008C19.6289-83.3008 15.7715-80.8105 15.7715-76.3672C15.7715-74.6582 16.5527-72.8516 17.7246-71.4355C22.6562-65.3809 25.8789-60.8887 26.5625-55.5176C23.5352-60.9863 21.0449-61.8652 18.5059-61.8652C15.5762-61.8652 13.623-60.0586 13.623-56.7383C13.623-54.6387 13.916-53.6133 13.916-50.7812C13.916-41.0156 6.83594-38.9648 6.83594-23.3887C6.83594-5.85938 20.3125 5.85938 40.4785 5.85938ZM41.6016-11.084C34.6191-11.084 30.0293-15.1367 30.0293-21.2402C30.0293-27.3926 34.1797-28.7109 34.7168-34.668C34.7656-35.6445 35.8887-36.3281 36.9141-35.4004C38.2324-33.9355 39.209-32.0801 39.8926-29.3945C41.5527-33.4473 41.2598-37.4023 40.332-41.7969C40.0391-43.1152 41.2109-43.75 42.2852-43.3105C49.9512-40.2344 54.6875-32.8125 54.6875-24.2676C54.6875-16.3574 49.4629-11.084 41.6016-11.084Z"/>
  </g>
  <g id="Heavy-S" transform="matrix(1 0 0 1 2595.06 696)">
   <path d="M39.6973 5.17578C61.7188 5.17578 76.416-9.52148 76.416-31.5918C76.416-67.4805 45.2637-82.6172 24.3652-82.6172C19.1895-82.6172 15.6738-80.4199 15.6738-76.3672C15.6738-74.8047 16.3574-73.1934 17.4316-71.875C22.5586-65.6738 26.0742-60.6445 26.4648-54.3945C23.6328-59.7168 20.8008-61.1816 17.9688-61.1816C15.2832-61.1816 13.5254-59.5215 13.5254-56.4941C13.5254-54.6875 13.8184-53.3203 13.8184-50.7812C13.8184-41.4062 6.83594-38.5742 6.83594-23.3887C6.83594-6.25 19.9707 5.17578 39.6973 5.17578ZM40.7715-10.3027C33.7402-10.3027 29.0527-14.4531 29.0527-20.6543C29.0527-26.9531 33.3984-28.5645 33.9844-34.1797C34.0332-35.0098 34.9121-35.5469 35.791-34.7656C37.207-33.3008 38.2324-31.3965 38.9648-28.8086C40.7227-32.5684 40.7227-37.0117 39.8926-41.8457C39.6484-42.9688 40.625-43.5059 41.5039-43.1152C49.4141-39.8438 54.0527-32.1289 54.0527-23.8281C54.0527-15.918 48.9746-10.3027 40.7715-10.3027Z"/>
  </g>
  <g id="Bold-S" transform="matrix(1 0 0 1 2299.23 696)">
   <path d="M38.8184 4.44336C60.3027 4.44336 74.6582-9.96094 74.6582-31.5918C74.6582-67.041 44.0918-81.8848 23.4375-81.8848C18.75-81.8848 15.5273-79.9316 15.5273-76.3672C15.5273-75 16.1621-73.5352 17.1387-72.3633C22.2168-66.2109 26.1719-60.6445 26.2207-53.5645C26.2207-53.4668 26.2207-53.418 26.2207-53.3203C23.6816-58.3984 20.5078-60.4492 17.334-60.4492C14.9902-60.4492 13.3789-58.8867 13.3789-56.25C13.3789-54.7363 13.6719-53.0273 13.6719-50.7812C13.6719-41.8457 6.83594-38.1348 6.83594-23.3887C6.83594-6.68945 19.6289 4.44336 38.8184 4.44336ZM39.8926-9.42383C32.7148-9.42383 28.0273-13.623 28.0273-19.9707C28.0273-26.5137 32.5195-28.418 33.1055-33.5938C33.1543-34.2773 33.8379-34.668 34.5215-34.082C36.084-32.5195 37.1094-30.6641 37.9395-28.1738C39.7949-31.5918 40.1367-36.5723 39.4043-41.9434C39.209-42.8223 39.9414-43.2129 40.625-42.9199C48.7793-39.4043 53.3691-31.3965 53.3691-23.291C53.3691-15.4785 48.4863-9.42383 39.8926-9.42383Z"/>
  </g>
  <g id="Semibold-S" transform="matrix(1 0 0 1 2003.13 696)">
   <path d="M38.2324 3.90625C59.3262 3.90625 73.4375-10.2539 73.4375-31.5918C73.4375-66.6992 43.2617-81.3477 22.8027-81.3477C18.4082-81.3477 15.4297-79.6387 15.4297-76.3672C15.4297-75.0977 16.0156-73.7793 16.9434-72.7051C21.7773-66.8457 25.9766-60.9863 26.0254-53.6621C26.0254-53.3203 26.0254-52.9785 26.0254-52.6855C23.6816-57.4707 20.2637-59.9121 16.8945-59.9121C14.7461-59.9121 13.2812-58.4473 13.2812-56.0547C13.2812-54.7363 13.5742-52.832 13.5742-50.7812C13.5742-42.1387 6.83594-37.8418 6.83594-23.3887C6.83594-6.98242 19.3848 3.90625 38.2324 3.90625ZM39.2578-8.78906C32.0312-8.78906 27.2949-13.0859 27.2949-19.5312C27.2949-26.1719 31.9336-28.2715 32.5195-33.2031C32.5684-33.7402 33.1055-34.0332 33.6426-33.5938C35.2539-32.0312 36.377-30.127 37.207-27.7344C39.1602-30.9082 39.7461-36.2793 39.0625-41.9922C38.916-42.6758 39.4531-43.0176 40.0391-42.7734C48.3398-39.0625 52.8809-30.8594 52.8809-22.9492C52.8809-15.1367 48.0957-8.78906 39.2578-8.78906Z"/>
  </g>
  <g id="Medium-S" transform="matrix(1 0 0 1 1706.88 696)">
   <path d="M37.7441 3.51562C58.5938 3.51562 72.5098-10.498 72.5098-31.5918C72.5098-66.4551 42.6758-80.957 22.3633-80.957C18.1641-80.957 15.3809-79.3945 15.3809-76.3672C15.3809-75.1953 15.918-73.9746 16.7969-72.9492C21.4844-67.2852 25.8301-61.2305 25.8789-53.7598C25.8789-53.2227 25.8789-52.7344 25.8301-52.2461C23.6328-56.8359 20.0684-59.5215 16.5527-59.5215C14.5996-59.5215 13.2324-58.1055 13.2324-55.957C13.2324-54.7852 13.5254-52.6367 13.5254-50.7812C13.5254-42.334 6.83594-37.6465 6.83594-23.3887C6.83594-7.22656 19.1895 3.51562 37.7441 3.51562ZM38.7695-8.34961C31.543-8.34961 26.709-12.6953 26.709-19.1895C26.709-25.9277 31.4941-28.2227 32.0801-32.9102C32.1289-33.3984 32.5684-33.5938 32.959-33.2031C34.668-31.6406 35.791-29.7363 36.6699-27.3926C38.6719-30.4199 39.4043-36.084 38.7695-42.041C38.7207-42.5781 39.1113-42.8711 39.5996-42.6758C48.0469-38.8672 52.4902-30.4688 52.4902-22.6562C52.4902-14.8926 47.8027-8.34961 38.7695-8.34961Z"/>
  </g>
  <g id="Regular-S" transform="matrix(1 0 0 1 1410.78 696)">
   <path d="M37.1582 3.02734C57.6172 3.02734 71.2891-10.791 71.2891-31.5918C71.2891-66.1133 41.8457-80.4688 21.7285-80.4688C17.8223-80.4688 15.2832-79.0527 15.2832-76.3672C15.2832-75.3418 15.7715-74.2188 16.6016-73.2422C21.0938-67.8711 25.6348-61.5723 25.7324-53.8574C25.7324-53.125 25.7324-52.4414 25.5859-51.709C23.4863-56.0547 19.7754-59.0332 16.1621-59.0332C14.3555-59.0332 13.1348-57.7148 13.1348-55.7617C13.1348-54.7852 13.4277-52.4414 13.4277-50.7812C13.4277-42.627 6.83594-37.3535 6.83594-23.3887C6.83594-7.51953 18.9453 3.02734 37.1582 3.02734ZM38.1348-7.71484C30.8594-7.71484 25.9766-12.1582 25.9766-18.75C25.9766-25.6348 30.9082-28.0762 31.543-32.5195C31.5918-32.9102 31.7871-33.0078 32.0801-32.7637C33.8867-31.1523 35.0098-29.1992 35.9375-26.9043C38.0371-29.7363 39.0137-35.791 38.4277-42.0898C38.3789-42.4805 38.623-42.6758 38.9648-42.5293C47.6074-38.5254 52.002-29.9805 52.002-22.3145C52.002-14.5508 47.4609-7.71484 38.1348-7.71484Z"/>
  </g>
  <g id="Light-S" transform="matrix(1 0 0 1 1114.73 696)">
   <path d="M36.6699 2.34375C56.6406 2.34375 69.9707-11.1328 69.9707-31.5918C69.9707-65.5762 41.0645-79.7852 20.7031-79.7852C17.334-79.7852 15.2832-78.6133 15.2832-76.3672C15.2832-75.4883 15.6738-74.5605 16.4551-73.6816C21.0449-68.2129 25.5859-61.6211 25.6836-54.248C25.6836-53.0762 25.5371-52.002 25.1465-50.8301C23.0469-55.3711 18.8965-58.3496 15.4785-58.3496C14.0625-58.3496 13.1348-57.3242 13.1348-55.8105C13.1348-54.834 13.4277-52.4902 13.4277-50.7812C13.4277-41.8457 6.83594-37.0605 6.83594-23.3887C6.83594-7.91016 18.6523 2.34375 36.6699 2.34375ZM37.4512-8.39844C30.4199-8.39844 25.8301-12.5977 25.8301-18.9453C25.8301-25.5371 30.4688-27.8809 31.1035-32.1289C31.1523-32.4707 31.3965-32.5684 31.6406-32.3242C33.3984-30.8594 34.5703-28.9062 35.498-26.7578C37.5-29.4434 38.4277-35.1074 37.7441-41.3086C37.6953-41.6504 37.9395-41.8457 38.2324-41.6992C46.4355-37.8418 50.7324-29.6875 50.7324-22.3633C50.7324-14.9414 46.3867-8.39844 37.4512-8.39844Z"/>
  </g>
  <g id="Thin-S" transform="matrix(1 0 0 1 818.873 696)">
   <path d="M36.0352 1.51367C55.3223 1.51367 68.2617-11.6211 68.2617-31.5918C68.2617-64.8438 40.0391-78.9551 19.3848-78.9551C16.6992-78.9551 15.2832-78.0762 15.2832-76.3672C15.2832-75.6836 15.5762-75.0488 16.2598-74.2188C20.9473-68.6523 25.5859-61.7188 25.5859-54.834C25.5859-53.125 25.2441-51.5625 24.4629-50C22.3145-54.5898 17.6758-57.5195 14.6484-57.5195C13.7207-57.5195 13.1348-56.8359 13.1348-55.8594C13.1348-54.834 13.4277-52.4902 13.4277-50.7812C13.4277-40.8203 6.83594-36.6699 6.83594-23.3887C6.83594-8.39844 18.3105 1.51367 36.0352 1.51367ZM36.5234-9.27734C29.9316-9.27734 25.5859-13.2324 25.5859-19.1895C25.5859-25.3906 29.9316-27.6367 30.5664-31.6406C30.6152-31.9336 30.8105-32.0312 31.1035-31.8359C32.7637-30.4199 33.9355-28.5645 34.9121-26.5625C36.7676-29.0527 37.6953-34.2285 36.8164-40.2832C36.7676-40.5762 36.9629-40.7715 37.3047-40.625C44.9707-36.8652 49.0234-29.3457 49.0234-22.4121C49.0234-15.4297 44.9707-9.27734 36.5234-9.27734Z"/>
  </g>
  <g id="Ultralight-S" transform="matrix(1 0 0 1 522.626 696)">
   <path d="M35.6934 1.07422C54.6387 1.07422 67.334-11.8652 67.334-31.5918C67.334-64.4531 39.502-78.5156 18.6523-78.5156C16.4062-78.5156 15.2832-77.7344 15.2832-76.3672C15.2832-75.7812 15.5273-75.293 16.1621-74.5117C20.8984-68.8965 25.5371-61.7676 25.5371-55.127C25.5371-53.1738 25.0977-51.3184 24.0723-49.6582C21.9727-54.1992 16.9922-57.0801 14.209-57.0801C13.5254-57.0801 13.1348-56.5918 13.1348-55.9082C13.1348-54.8828 13.4277-52.5391 13.4277-50.7812C13.4277-40.2832 6.83594-36.4746 6.83594-23.3887C6.83594-8.64258 18.1152 1.07422 35.6934 1.07422ZM36.0352-9.7168C29.6387-9.7168 25.4883-13.5742 25.4883-19.2871C25.4883-25.293 29.6387-27.4902 30.2734-31.3477C30.3223-31.6406 30.5176-31.7383 30.7617-31.543C32.4219-30.2246 33.5938-28.3691 34.5703-26.4648C36.4258-28.8574 37.3047-33.7402 36.3281-39.7461C36.2793-40.0391 36.4746-40.2344 36.7676-40.0879C44.1895-36.377 48.1445-29.1504 48.1445-22.4609C48.1445-15.6738 44.1895-9.7168 36.0352-9.7168Z"/>
  </g>
 </g>
</svg>
